<?xml version="1.0" encoding="UTF-8"?>
<svg width="70.387" height="54.128" version="1.1" viewBox="0 0 70.387 54.128" xml:space="preserve" xmlns="http://www.w3.org/2000/svg" xmlns:cc="http://creativecommons.org/ns#" xmlns:dc="http://purl.org/dc/elements/1.1/" xmlns:rdf="http://www.w3.org/1999/02/22-rdf-syntax-ns#"><metadata><rdf:RDF><cc:Work rdf:about=""><dc:format>image/svg+xml</dc:format><dc:type rdf:resource="http://purl.org/dc/dcmitype/StillImage"/><dc:title/></cc:Work></rdf:RDF></metadata><defs><clipPath id="clipPath14"><path d="m0 0h792v1224h-792z"/></clipPath></defs><g transform="matrix(0 1.3333 1.3333 0 -985.17 -521.99)" clip-path="url(#clipPath14)"><path transform="matrix(0 .75 .75 0 0 0)" d="m985.17 522v54.029h64.492v-31.695h5.8926v-22.334h-6.2441z" fill="#f00" opacity=".15" stroke-width="1.0023"/><g fill="#0f0"><rect transform="matrix(0,1,1,0,0,0)" x="754.98" y="430.04" width="12.368" height="1.8956" opacity=".45" stroke-width=".39481"/><rect transform="matrix(0,1,1,0,0,0)" x="750.16" y="420.2" width="22.884" height="8.6935" opacity=".45" stroke-width=".75"/><rect transform="matrix(0,1,1,0,0,0)" x="768.58" y="392.05" width="21.786" height="10.309" opacity=".45" stroke-width=".78814"/><rect transform="scale(1,-1)" x="409.77" y="-787.02" width="21.786" height="10.309" opacity=".45" stroke-width=".78814"/><rect transform="matrix(0,1,1,0,0,0)" x="738.88" y="391.64" width="7.3881" height="40.268" opacity=".45" stroke-width="1.0072"/></g></g></svg>
